<svg xmlns="http://www.w3.org/2000/svg" xmlns:xlink="http://www.w3.org/1999/xlink" width="500" zoomAndPan="magnify" viewBox="0 0 375 374.999991" height="500" preserveAspectRatio="xMidYMid meet" version="1.0"><defs><g/><clipPath id="7cb026fed9"><path d="M 20.160156 166.308594 L 354.839844 166.308594 L 354.839844 206.523438 L 20.160156 206.523438 Z M 20.160156 166.308594 " clip-rule="nonzero"/></clipPath></defs><g fill="#fbfaf9" fill-opacity="1"><g transform="translate(18.929429, 259.53815)"><g><path d="M 12.394531 0 L 20.007812 0 C 18.59375 -13.457031 18.0625 -21.425781 18.0625 -37.894531 L 18.0625 -132.628906 L 77.382812 3.542969 L 82.871094 3.542969 L 137.941406 -133.160156 L 137.941406 -37.894531 C 137.941406 -21.425781 137.410156 -13.457031 136.171875 0 L 169.636719 0 C 168.222656 -13.457031 167.867188 -21.425781 167.867188 -37.894531 L 167.867188 -103.765625 C 167.867188 -120.234375 168.222656 -128.203125 169.636719 -141.660156 L 137.585938 -141.660156 L 94.027344 -36.476562 L 47.277344 -141.660156 L 12.394531 -141.660156 C 13.8125 -128.203125 14.34375 -120.234375 14.34375 -103.765625 L 14.34375 -37.894531 C 14.34375 -21.425781 13.8125 -13.457031 12.394531 0 Z M 12.394531 0 "/></g></g></g><g fill="#fbfaf9" fill-opacity="1"><g transform="translate(192.103705, 259.53815)"><g><path d="M 160.429688 -67.644531 L 160.429688 -71.359375 L 83.226562 -71.359375 L 93.496094 -57.195312 C 108.015625 -66.050781 122.535156 -67.644531 132.453125 -67.644531 L 140.421875 -67.644531 C 138.472656 -29.570312 121.121094 -5.667969 91.902344 -5.667969 C 59.320312 -5.667969 42.851562 -36.476562 42.851562 -74.546875 C 42.851562 -111.558594 57.902344 -141.484375 85.171875 -141.484375 C 105.535156 -141.484375 115.808594 -122.003906 119.878906 -98.097656 L 147.859375 -105.890625 C 135.640625 -129.265625 115.453125 -145.203125 85.171875 -145.203125 C 44.089844 -145.203125 10.625 -117.578125 10.625 -72.601562 C 10.625 -27.625 39.84375 3.542969 82.695312 3.542969 C 115.984375 3.542969 133.515625 -15.582031 140.421875 -45.332031 L 140.421875 -39.3125 C 140.421875 -26.03125 139.890625 -14.34375 138.117188 0 L 148.390625 0 C 146.617188 -14.34375 146.085938 -26.03125 146.085938 -39.3125 L 146.085938 -67.644531 Z M 160.429688 -67.644531 "/></g></g></g><g clip-path="url(#7cb026fed9)"><path fill="#231f20" d="M 20.160156 166.308594 L 354.839844 166.308594 L 354.839844 206.523438 L 20.160156 206.523438 Z M 20.160156 166.308594 " fill-opacity="1" fill-rule="nonzero"/></g><g fill="#dec2ba" fill-opacity="1"><g transform="translate(74.551856, 190.806194)"><g><path d="M 10.3125 0 L 8.953125 0 L 8.953125 -6.484375 L 6.203125 -0.90625 L 5.25 -0.90625 L 2.515625 -6.484375 L 2.515625 0 L 1.140625 0 L 1.140625 -8.671875 L 2.875 -8.671875 L 5.734375 -2.90625 L 8.59375 -8.671875 L 10.3125 -8.671875 Z M 10.3125 0 "/></g></g></g><g fill="#dec2ba" fill-opacity="1"><g transform="translate(95.931763, 190.806194)"><g><path d="M 2.609375 0 L 1.140625 0 L 1.140625 -8.671875 L 2.609375 -8.671875 Z M 2.609375 0 "/></g></g></g><g fill="#dec2ba" fill-opacity="1"><g transform="translate(109.595266, 190.806194)"><g><path d="M 4.984375 -8.703125 C 5.585938 -8.703125 6.179688 -8.582031 6.765625 -8.34375 C 7.347656 -8.113281 7.851562 -7.789062 8.28125 -7.375 L 7.421875 -6.3125 C 7.109375 -6.644531 6.734375 -6.910156 6.296875 -7.109375 C 5.867188 -7.304688 5.4375 -7.40625 5 -7.40625 C 4.132812 -7.40625 3.398438 -7.109375 2.796875 -6.515625 C 2.203125 -5.929688 1.90625 -5.210938 1.90625 -4.359375 C 1.90625 -3.503906 2.203125 -2.78125 2.796875 -2.1875 C 3.398438 -1.59375 4.132812 -1.296875 5 -1.296875 C 5.90625 -1.296875 6.710938 -1.640625 7.421875 -2.328125 L 8.296875 -1.359375 C 7.847656 -0.921875 7.328125 -0.570312 6.734375 -0.3125 C 6.140625 -0.0625 5.539062 0.0625 4.9375 0.0625 C 3.65625 0.0625 2.582031 -0.359375 1.71875 -1.203125 C 0.851562 -2.054688 0.421875 -3.101562 0.421875 -4.34375 C 0.421875 -5.570312 0.859375 -6.601562 1.734375 -7.4375 C 2.617188 -8.28125 3.703125 -8.703125 4.984375 -8.703125 Z M 4.984375 -8.703125 "/></g></g></g><g fill="#dec2ba" fill-opacity="1"><g transform="translate(128.15119, 190.806194)"><g><path d="M 8.65625 0 L 7.203125 0 L 7.203125 -3.59375 L 2.609375 -3.59375 L 2.609375 0 L 1.140625 0 L 1.140625 -8.671875 L 2.609375 -8.671875 L 2.609375 -4.90625 L 7.203125 -4.90625 L 7.203125 -8.671875 L 8.65625 -8.671875 Z M 8.65625 0 "/></g></g></g><g fill="#dec2ba" fill-opacity="1"><g transform="translate(147.871389, 190.806194)"><g><path d="M 6.734375 -1.953125 L 2.359375 -1.953125 L 1.53125 0 L 0.015625 0 L 3.84375 -8.671875 L 5.34375 -8.671875 L 9.125 0 L 7.578125 0 Z M 6.1875 -3.265625 L 4.546875 -7.109375 L 2.90625 -3.265625 Z M 6.1875 -3.265625 "/></g></g></g><g fill="#dec2ba" fill-opacity="1"><g transform="translate(166.935135, 190.806194)"><g><path d="M 7.328125 -7.359375 L 2.609375 -7.359375 L 2.609375 -5.015625 L 6.84375 -5.015625 L 6.84375 -3.703125 L 2.609375 -3.703125 L 2.609375 -1.3125 L 7.484375 -1.3125 L 7.484375 0 L 1.140625 0 L 1.140625 -8.671875 L 7.328125 -8.671875 Z M 7.328125 -7.359375 "/></g></g></g><g fill="#dec2ba" fill-opacity="1"><g transform="translate(184.983237, 190.806194)"><g><path d="M 2.609375 -1.328125 L 6.359375 -1.328125 L 6.359375 0 L 1.140625 0 L 1.140625 -8.671875 L 2.609375 -8.671875 Z M 2.609375 -1.328125 "/></g></g></g><g fill="#dec2ba" fill-opacity="1"><g transform="translate(201.520257, 190.806194)"><g><path d="M 7.078125 -4.265625 L 8.34375 -4.265625 L 8.34375 -1.0625 C 7.90625 -0.726562 7.378906 -0.457031 6.765625 -0.25 C 6.160156 -0.0390625 5.566406 0.0625 4.984375 0.0625 C 3.703125 0.0625 2.617188 -0.359375 1.734375 -1.203125 C 0.859375 -2.054688 0.421875 -3.097656 0.421875 -4.328125 C 0.421875 -5.566406 0.863281 -6.601562 1.75 -7.4375 C 2.644531 -8.28125 3.75 -8.703125 5.0625 -8.703125 C 5.675781 -8.703125 6.273438 -8.59375 6.859375 -8.375 C 7.453125 -8.15625 7.96875 -7.863281 8.40625 -7.5 L 7.578125 -6.421875 C 6.859375 -7.078125 6.019531 -7.40625 5.0625 -7.40625 C 4.175781 -7.40625 3.425781 -7.109375 2.8125 -6.515625 C 2.207031 -5.921875 1.90625 -5.195312 1.90625 -4.34375 C 1.90625 -3.46875 2.210938 -2.734375 2.828125 -2.140625 C 3.441406 -1.546875 4.191406 -1.25 5.078125 -1.25 C 5.742188 -1.25 6.410156 -1.445312 7.078125 -1.84375 Z M 7.078125 -4.265625 "/></g></g></g><g fill="#dec2ba" fill-opacity="1"><g transform="translate(220.720252, 190.806194)"><g><path d="M 2.609375 0 L 1.140625 0 L 1.140625 -8.671875 L 2.609375 -8.671875 Z M 2.609375 0 "/></g></g></g><g fill="#dec2ba" fill-opacity="1"><g transform="translate(234.383761, 190.806194)"><g><path d="M 1.140625 -8.671875 L 4.90625 -8.671875 C 5.800781 -8.671875 6.507812 -8.476562 7.03125 -8.09375 C 7.550781 -7.707031 7.8125 -7.175781 7.8125 -6.5 C 7.8125 -6.019531 7.675781 -5.609375 7.40625 -5.265625 C 7.132812 -4.921875 6.765625 -4.691406 6.296875 -4.578125 C 6.867188 -4.472656 7.320312 -4.226562 7.65625 -3.84375 C 7.988281 -3.457031 8.15625 -2.96875 8.15625 -2.375 C 8.15625 -1.632812 7.875 -1.050781 7.3125 -0.625 C 6.75 -0.207031 5.976562 0 5 0 L 1.140625 0 Z M 2.609375 -7.375 L 2.609375 -5.078125 L 4.828125 -5.078125 C 5.296875 -5.078125 5.660156 -5.179688 5.921875 -5.390625 C 6.179688 -5.597656 6.3125 -5.882812 6.3125 -6.25 C 6.3125 -6.613281 6.179688 -6.890625 5.921875 -7.078125 C 5.660156 -7.273438 5.296875 -7.375 4.828125 -7.375 Z M 2.609375 -3.796875 L 2.609375 -1.296875 L 4.828125 -1.296875 C 5.410156 -1.296875 5.859375 -1.40625 6.171875 -1.625 C 6.492188 -1.84375 6.65625 -2.15625 6.65625 -2.5625 C 6.65625 -2.945312 6.492188 -3.25 6.171875 -3.46875 C 5.847656 -3.6875 5.398438 -3.796875 4.828125 -3.796875 Z M 2.609375 -3.796875 "/></g></g></g><g fill="#dec2ba" fill-opacity="1"><g transform="translate(253.051159, 190.806194)"><g><path d="M 3.984375 -8.734375 C 5.109375 -8.734375 6.125 -8.4375 7.03125 -7.84375 L 6.421875 -6.546875 C 5.535156 -7.085938 4.6875 -7.359375 3.875 -7.359375 C 3.4375 -7.359375 3.09375 -7.28125 2.84375 -7.125 C 2.59375 -6.96875 2.46875 -6.742188 2.46875 -6.453125 C 2.46875 -6.160156 2.582031 -5.914062 2.8125 -5.71875 C 3.039062 -5.519531 3.328125 -5.367188 3.671875 -5.265625 C 4.023438 -5.171875 4.40625 -5.050781 4.8125 -4.90625 C 5.21875 -4.769531 5.59375 -4.617188 5.9375 -4.453125 C 6.28125 -4.296875 6.566406 -4.046875 6.796875 -3.703125 C 7.023438 -3.359375 7.140625 -2.941406 7.140625 -2.453125 C 7.140625 -1.691406 6.832031 -1.082031 6.21875 -0.625 C 5.613281 -0.175781 4.828125 0.046875 3.859375 0.046875 C 3.203125 0.046875 2.5625 -0.0703125 1.9375 -0.3125 C 1.320312 -0.5625 0.785156 -0.898438 0.328125 -1.328125 L 0.953125 -2.59375 C 1.390625 -2.1875 1.867188 -1.875 2.390625 -1.65625 C 2.921875 -1.4375 3.421875 -1.328125 3.890625 -1.328125 C 4.398438 -1.328125 4.796875 -1.421875 5.078125 -1.609375 C 5.367188 -1.796875 5.515625 -2.050781 5.515625 -2.375 C 5.515625 -2.675781 5.394531 -2.925781 5.15625 -3.125 C 4.925781 -3.332031 4.640625 -3.484375 4.296875 -3.578125 C 3.953125 -3.671875 3.578125 -3.785156 3.171875 -3.921875 C 2.765625 -4.054688 2.390625 -4.195312 2.046875 -4.34375 C 1.703125 -4.5 1.410156 -4.742188 1.171875 -5.078125 C 0.941406 -5.421875 0.828125 -5.832031 0.828125 -6.3125 C 0.828125 -7.050781 1.113281 -7.640625 1.6875 -8.078125 C 2.269531 -8.515625 3.035156 -8.734375 3.984375 -8.734375 Z M 3.984375 -8.734375 "/></g></g></g><g fill="#dec2ba" fill-opacity="1"><g transform="translate(270.678137, 190.806194)"><g><path d="M 1.75 -7.4375 C 2.632812 -8.28125 3.722656 -8.703125 5.015625 -8.703125 C 6.316406 -8.703125 7.40625 -8.28125 8.28125 -7.4375 C 9.164062 -6.601562 9.609375 -5.566406 9.609375 -4.328125 C 9.609375 -3.097656 9.164062 -2.054688 8.28125 -1.203125 C 7.40625 -0.359375 6.316406 0.0625 5.015625 0.0625 C 3.722656 0.0625 2.632812 -0.359375 1.75 -1.203125 C 0.863281 -2.054688 0.421875 -3.097656 0.421875 -4.328125 C 0.421875 -5.566406 0.863281 -6.601562 1.75 -7.4375 Z M 5.03125 -7.390625 C 4.164062 -7.390625 3.425781 -7.09375 2.8125 -6.5 C 2.207031 -5.914062 1.90625 -5.191406 1.90625 -4.328125 C 1.90625 -3.472656 2.210938 -2.742188 2.828125 -2.140625 C 3.441406 -1.546875 4.175781 -1.25 5.03125 -1.25 C 5.882812 -1.25 6.609375 -1.546875 7.203125 -2.140625 C 7.804688 -2.742188 8.109375 -3.472656 8.109375 -4.328125 C 8.109375 -5.191406 7.804688 -5.914062 7.203125 -6.5 C 6.609375 -7.09375 5.882812 -7.390625 5.03125 -7.390625 Z M 5.03125 -7.390625 "/></g></g></g><g fill="#dec2ba" fill-opacity="1"><g transform="translate(290.633665, 190.806194)"><g><path d="M 8.65625 0 L 7.21875 0 L 2.609375 -6.21875 L 2.609375 0 L 1.140625 0 L 1.140625 -8.671875 L 2.578125 -8.671875 L 7.21875 -2.4375 L 7.21875 -8.671875 L 8.65625 -8.671875 Z M 8.65625 0 "/></g></g></g></svg>